<?xml version="1.0" encoding="utf-8"?>
<!-- Generator: Adobe Illustrator 23.0.1, SVG Export Plug-In . SVG Version: 6.00 Build 0)  -->
<svg version="1.1" id="Layer_1" xmlns="http://www.w3.org/2000/svg" xmlns:xlink="http://www.w3.org/1999/xlink" x="0px" y="0px"
	 viewBox="0 0 896.02 887" style="enable-background:new 0 0 896.02 887;" xml:space="preserve">
<style type="text/css">
	.st0{fill:#073B53;}
</style>
<path class="st0" d="M745.1,297.09C745.1,133.01,612.08,0,448,0C283.91,0,150.9,133.02,150.9,297.11
	c0,78.79,31.3,154.36,87.02,210.08c18.18,18.22,38.65,34.02,60.88,47C160.61,600.23,51.17,707.12,1.88,844.19
	c-5.96,16.64,2.69,34.96,19.33,40.92c16.64,5.96,34.96-2.69,40.92-19.33C120.34,703.34,275.41,594.2,448,594.2
	C612.09,594.2,745.1,461.19,745.1,297.09C745.1,297.1,745.1,297.1,745.1,297.09z M448,530.2c-128.53,0-233.1-104.57-233.1-233.1
	S319.47,63.99,448,63.99s233.1,104.57,233.1,233.1S576.53,530.2,448,530.2z M894.12,844.19c-36.65-101.73-106.83-187.95-199-244.5
	c-14.96-9.41-34.72-4.9-44.12,10.06c-9.41,14.96-4.9,34.72,10.06,44.12c0.21,0.13,0.42,0.26,0.63,0.39
	c79.75,48.91,140.47,123.51,172.19,211.52c5.96,16.64,24.28,25.29,40.92,19.33c16.64-5.96,25.29-24.28,19.33-40.92H894.12z"/>
</svg>
