<?xml version="1.0" encoding="utf-8"?>
<!-- Generator: Adobe Illustrator 23.0.1, SVG Export Plug-In . SVG Version: 6.00 Build 0)  -->
<svg version="1.1" id="icons" xmlns="http://www.w3.org/2000/svg" xmlns:xlink="http://www.w3.org/1999/xlink" x="0px" y="0px"
	 viewBox="0 0 45.54 48" style="enable-background:new 0 0 45.54 48;" xml:space="preserve">
<style type="text/css">
	.st0{fill:none;stroke:#FFFFFF;stroke-width:2;stroke-linejoin:round;stroke-miterlimit:10;}
</style>
<g>
	<path class="st0" d="M18.54,2.05C19.49,1.37,20.5,1,21.54,1c4.13,0,7.68,5.77,9.21,14"/>
	<path class="st0" d="M11.78,19c0.5-5.22,1.78-9.78,3.54-13"/>
	<path class="st0" d="M31.3,19c0.16,1.61,0.24,3.28,0.24,5c0,12.7-4.48,23-10,23c-5.52,0-10-10.3-10-23c0-0.67,0.01-1.34,0.04-2"/>
	<path class="st0" d="M11.54,29.38C3.62,23.49-0.69,16.51,1.62,12.5c2.76-4.78,13.92-3.51,24.92,2.84c3.5,2.02,6.57,4.32,9.03,6.66"
		/>
	<path class="st0" d="M42.08,33c0.01,0.92-0.19,1.76-0.62,2.5c-2.76,4.78-13.92,3.51-24.92-2.84c-0.68-0.4-1.35-0.8-2-1.21"/>
	<path class="st0" d="M37.54,24.03c0.89,1,1.67,2,2.31,2.97"/>
	<path class="st0" d="M9.54,38.37c3.44-0.17,7.63-1.24,12-3.17"/>
	<path class="st0" d="M17.54,14.78c-0.33,0.18-0.67,0.37-1,0.56C5.54,21.69-1.14,30.72,1.62,35.5c0.44,0.76,1.09,1.37,1.92,1.83"/>
	<path class="st0" d="M25.54,33.22c0.33-0.18,0.67-0.37,1-0.56c11-6.35,17.68-15.38,14.92-20.16c-2.34-4.06-10.72-3.76-19.92,0.3"/>
	<ellipse transform="matrix(0.8506 -0.5257 0.5257 0.8506 0.3676 9.294)" class="st0" cx="16.54" cy="4" rx="3" ry="3"/>
	<ellipse transform="matrix(0.8506 -0.5257 0.5257 0.8506 -19.0014 9.1148)" class="st0" cx="6.54" cy="38" rx="3" ry="3"/>
	<ellipse transform="matrix(0.8506 -0.5257 0.5257 0.8506 -9.5678 26.3209)" class="st0" cx="41.54" cy="30" rx="3" ry="3"/>
	<path class="st0" d="M25.54,24c0,2.21-1.79,4-4,4s-4-1.79-4-4c0-2.21,1.79-4,4-4C23.75,20,25.54,21.79,25.54,24z"/>
</g>
</svg>
