<?xml version="1.0" encoding="utf-8"?>
<!-- Generator: Adobe Illustrator 23.0.1, SVG Export Plug-In . SVG Version: 6.00 Build 0)  -->
<svg version="1.1" id="Layer_1" xmlns="http://www.w3.org/2000/svg" xmlns:xlink="http://www.w3.org/1999/xlink" x="0px" y="0px"
	 viewBox="0 0 62.36 64.2" style="enable-background:new 0 0 62.36 64.2;" xml:space="preserve">
<style type="text/css">
	.st0{fill:#0D0E22;}
	.st1{fill:#DC2B35;}
	.st2{fill:#043B53;}
	.st3{fill:#677A82;}
</style>
<path class="st0" d="M62.36,32.07c0,8.61-3.49,16.41-9.13,22.05c-4.61,4.61-10.65,7.78-17.4,8.79c-0.14,0.74-0.78,1.29-1.56,1.29
	c-0.88,0-1.59-0.71-1.59-1.59c0-0.88,0.71-1.59,1.59-1.59c0.67,0,1.25,0.42,1.48,1.01c6.54-0.99,12.4-4.07,16.87-8.53
	c5.48-5.48,8.88-13.06,8.88-21.43c0-8.37-3.39-15.95-8.88-21.43c-1.07-1.07-2.21-2.05-3.43-2.95l0.24-0.9
	c1.35,0.98,2.62,2.06,3.8,3.24C58.87,15.66,62.36,23.46,62.36,32.07L62.36,32.07z"/>
<path class="st1" d="M54.19,20.79c0,0.88-0.71,1.59-1.59,1.59c-0.88,0-1.59-0.71-1.59-1.59c0-0.43,0.17-0.82,0.45-1.11
	c-0.98-1.61-2.16-3.09-3.48-4.42c-4.3-4.3-10.24-6.96-16.81-6.96c-6.56,0-12.51,2.66-16.81,6.96c-1.63,1.63-3.02,3.49-4.12,5.53
	H9.27c1.18-2.28,2.7-4.35,4.49-6.15c4.46-4.46,10.62-7.22,17.42-7.22c6.8,0,12.97,2.76,17.42,7.22c1.38,1.38,2.6,2.93,3.63,4.61
	c0.12-0.03,0.24-0.04,0.37-0.04C53.48,19.21,54.19,19.92,54.19,20.79L54.19,20.79z"/>
<path class="st2" d="M11.35,43.35c0,0.43-0.17,0.82-0.45,1.11c0.98,1.61,2.16,3.09,3.48,4.42c4.3,4.3,10.24,6.96,16.81,6.96
	c6.56,0,12.51-2.66,16.81-6.96c1.63-1.63,3.02-3.49,4.12-5.53h0.99c-1.18,2.28-2.7,4.35-4.49,6.15c-4.46,4.46-10.62,7.22-17.42,7.22
	c-6.8,0-12.97-2.76-17.42-7.22c-1.38-1.38-2.6-2.93-3.63-4.61c-0.12,0.03-0.24,0.04-0.37,0.04c-0.88,0-1.59-0.71-1.59-1.59
	c0-0.88,0.71-1.59,1.59-1.59C10.64,41.76,11.35,42.47,11.35,43.35L11.35,43.35z"/>
<path class="st3" d="M29.73,1.59c0,0.88-0.71,1.59-1.59,1.59c-0.7,0-1.29-0.45-1.5-1.07c-6.55,0.98-12.42,4.06-16.9,8.54
	C4.27,16.12,0.87,23.7,0.87,32.07c0,8.37,3.39,15.95,8.88,21.43c1.07,1.07,2.21,2.05,3.43,2.95l-0.24,0.9
	c-1.35-0.98-2.62-2.06-3.8-3.24C3.49,48.48,0,40.68,0,32.07c0-8.61,3.49-16.41,9.13-22.05c4.62-4.62,10.69-7.8,17.47-8.8
	C26.77,0.52,27.4,0,28.15,0C29.03,0,29.73,0.71,29.73,1.59L29.73,1.59z"/>
</svg>
