<?xml version="1.0" encoding="utf-8"?>
<!-- Generator: Adobe Illustrator 23.0.1, SVG Export Plug-In . SVG Version: 6.00 Build 0)  -->
<svg version="1.1" id="icons" xmlns="http://www.w3.org/2000/svg" xmlns:xlink="http://www.w3.org/1999/xlink" x="0px" y="0px"
	 viewBox="0 0 45.5 48" style="enable-background:new 0 0 45.5 48;" xml:space="preserve">
<style type="text/css">
	.st0{fill:none;stroke:#073B53;stroke-width:2;stroke-linejoin:round;stroke-miterlimit:10;}
</style>
<g>
	<path class="st0" d="M18.5,2.1c0.9-0.7,2-1,3-1c4.1,0,7.7,5.8,9.2,14"/>
	<path class="st0" d="M11.8,19c0.5-5.2,1.8-9.8,3.5-13"/>
	<path class="st0" d="M31.3,19c0.2,1.6,0.2,3.3,0.2,5c0,12.7-4.5,23-10,23s-10-10.3-10-23c0-0.7,0-1.3,0-2"/>
	<path class="st0" d="M11.5,29.4C3.6,23.5-0.7,16.5,1.6,12.5C4.4,7.7,15.5,9,26.5,15.3c3.5,2,6.6,4.3,9,6.7"/>
	<path class="st0" d="M42.1,33c0,0.9-0.2,1.8-0.6,2.5c-2.8,4.8-13.9,3.5-24.9-2.8c-0.7-0.4-1.4-0.8-2-1.2"/>
	<path class="st0" d="M37.5,24c0.9,1,1.7,2,2.3,3"/>
	<path class="st0" d="M9.5,38.4c3.4-0.2,7.6-1.2,12-3.2"/>
	<path class="st0" d="M17.5,14.8c-0.3,0.2-0.7,0.4-1,0.6C5.5,21.7-1.1,30.7,1.6,35.5c0.4,0.8,1.1,1.4,1.9,1.8"/>
	<path class="st0" d="M25.5,33.2c0.3-0.2,0.7-0.4,1-0.6c11-6.4,17.7-15.4,14.9-20.2c-2.3-4.1-10.7-3.8-19.9,0.3"/>
	<ellipse class="st0" cx="16.5" cy="4" rx="3" ry="3"/>
	<ellipse class="st0" cx="6.5" cy="38" rx="3" ry="3"/>
	<ellipse class="st0" cx="41.5" cy="30" rx="3" ry="3"/>
	<path class="st0" d="M25.5,24c0,2.2-1.8,4-4,4s-4-1.8-4-4s1.8-4,4-4S25.5,21.8,25.5,24z"/>
</g>
</svg>
