<?xml version="1.0" encoding="utf-8"?>
<!-- Generator: Adobe Illustrator 23.0.1, SVG Export Plug-In . SVG Version: 6.00 Build 0)  -->
<svg version="1.1" id="Official_NCDS" xmlns="http://www.w3.org/2000/svg" xmlns:xlink="http://www.w3.org/1999/xlink" x="0px"
	 y="0px" viewBox="0 0 534.47 317.44" style="enable-background:new 0 0 534.47 317.44;" xml:space="preserve">
<style type="text/css">
	.st0{fill:#DC2B35;}
	.st1{fill:#043B53;}
	.st2{fill:#0D0F22;}
	.st3{fill:#677A82;}
</style>
<g>
	<g>
		<path class="st0" d="M61.06,64.74c-18.72,0-35.59,8.59-46.64,21.78V72.1c0-3.99-3.07-7.36-7.06-7.36C3.07,64.74,0,68.11,0,72.1
			v51.24v2.45v81.61v1.84c0,0,0.31,0.31,0.31,0.61c0,0.31,0,0.61,0.31,0.92c0.92,1.84,2.76,3.38,4.91,3.99h1.84
			c2.15,0,4.29-0.92,5.52-2.76c0.92-0.92,1.23-2.15,1.53-3.38v-1.23v-81.61c0.61-25.46,21.17-46.33,46.64-46.33
			c25.77,0,46.33,20.86,46.33,46.33v81.61c0,4.29,3.37,7.36,7.36,7.36c3.99,0,7.36-3.07,7.36-7.36v-81.61
			C122.11,92.35,94.81,64.74,61.06,64.74z"/>
		<path class="st1" d="M211.7,78.85c14.42,0,27.92,4.91,38.66,13.5c3.37,2.46,7.67,1.53,10.13-1.23c2.76-3.38,2.15-7.98-0.92-10.12
			c-13.19-10.43-30.07-16.57-47.86-16.57c-42.95,0-77.32,33.14-77.32,74.86c0,42.34,34.36,75.48,77.32,75.48
			c17.79,0,34.67-6.14,47.25-15.96c3.68-2.76,4.29-7.36,1.53-10.74c-2.45-2.76-6.75-3.68-10.13-1.23
			c-10.74,8.28-24.24,13.19-38.66,13.19c-34.98,0-62.59-27-62.59-60.75C149.11,106.16,176.72,78.85,211.7,78.85z"/>
		<path class="st2" d="M402.23,0c-4.29,0-7.67,3.37-7.67,7.36v86.52c-13.19-17.8-34.05-29.45-57.68-29.45
			c-40.5,0-72.72,33.75-72.72,75.47c0,41.11,32.22,74.86,72.72,74.86c23.62,0,44.49-11.35,57.68-29.15v21.79
			c0,3.99,3.38,7.36,7.67,7.36c3.99,0,7.36-3.37,7.36-7.36v-67.5v-3.07V7.36C409.6,3.37,406.22,0,402.23,0z M394.56,142.36
			c-1.23,31.91-26.69,57.37-57.68,57.37c-31.6,0-57.68-26.69-57.68-59.83c0-33.44,26.08-60.44,57.68-60.44
			c30.99,0,56.45,25.77,57.68,57.99V142.36z"/>
		<path class="st3" d="M517.6,141.75c-10.43-5.83-22.09-10.12-36.51-12.27h-0.61c-13.81-2.15-23.93-5.83-30.68-10.43
			c-5.83-4.6-8.59-8.9-8.59-15.03c0-6.14,3.38-12.27,9.51-17.18c6.45-5.22,16.26-8.59,28.54-8.59c14.73,0,25.77,7.67,36.82,15.04
			c3.38,2.15,7.98,1.23,10.12-2.15c2.15-3.38,1.23-7.98-2.15-10.43c-11.66-7.36-25.46-16.26-44.79-16.26
			c-15.34,0-27.92,3.99-36.82,10.12c-9.51,7.06-16.26,17.49-16.26,29.45c0,11.66,6.75,21.48,16.26,27
			c8.59,6.14,20.55,9.2,34.06,11.66l0.61,0.31c14.72,2.45,25.46,6.14,31.91,11.04c7.67,6.44,10.43,11.35,10.74,18.41
			c0,6.75-3.99,13.5-11.35,18.41c-6.75,5.52-16.88,9.2-28.53,9.2c-19.02,0-35.59-9.82-46.02-17.49c-3.38-2.76-7.98-2.15-10.43,0.92
			c-2.46,3.07-2.15,7.06,0.92,9.82c12.27,9.82,31.3,21.17,55.54,21.48c14.73,0,27-4.29,37.43-11.97
			c10.12-7.67,17.18-17.79,17.18-30.37C534.47,159.85,527.42,148.19,517.6,141.75z"/>
	</g>
	<g>
		<g>
			<path class="st3" d="M37.84,258.64h18.99v2.9H48.9v19.87h-3.27v-19.87h-7.79V258.64z"/>
			<path class="st3" d="M75.93,258.67h3.25v22.73h-3.25v-9.89H63.16v9.89H59.9v-22.73h3.25v9.83h12.77V258.67z"/>
			<path class="st3" d="M84.2,258.67h12.89v2.9h-9.63v6.93h9.31v2.91h-9.31v7.06h9.94v2.9H84.2V258.67z"/>
			<path class="st3" d="M128.18,258.67h3.09v22.73h-2.8l-15.2-17.51v17.51h-3.06v-22.73h2.64l15.33,17.66V258.67z"/>
			<path class="st3" d="M143.39,258.54h2.29l10.19,22.86h-3.33l-3.03-6.74h-9.7l-2.84,6.74h-3.34L143.39,258.54z M148.17,271.77
				l-3.67-8.23l-3.4,8.23H148.17z"/>
			<path class="st3" d="M153.09,258.64h18.99v2.9h-7.92v19.87h-3.27v-19.87h-7.79V258.64z"/>
			<path class="st3" d="M175.19,258.67h3.25v22.73h-3.25V258.67z"/>
			<path class="st3" d="M194.64,258.35c3.51,0,6.44,1.11,8.77,3.34c2.34,2.22,3.5,5.01,3.5,8.36c0,3.35-1.18,6.13-3.54,8.32
				c-2.36,2.2-5.33,3.3-8.92,3.3c-3.43,0-6.28-1.1-8.56-3.3c-2.28-2.2-3.42-4.95-3.42-8.26c0-3.4,1.15-6.21,3.45-8.43
				C188.22,259.46,191.13,258.35,194.64,258.35z M194.77,261.44c-2.6,0-4.74,0.81-6.41,2.44c-1.67,1.63-2.51,3.7-2.51,6.23
				c0,2.45,0.84,4.49,2.52,6.12c1.68,1.63,3.78,2.44,6.31,2.44c2.54,0,4.65-0.83,6.35-2.49c1.7-1.66,2.54-3.73,2.54-6.2
				c0-2.41-0.85-4.43-2.54-6.08C199.32,262.26,197.24,261.44,194.77,261.44z"/>
			<path class="st3" d="M228.98,258.67h3.09v22.73h-2.8l-15.2-17.51v17.51h-3.06v-22.73h2.64l15.33,17.66V258.67z"/>
			<path class="st3" d="M244.2,258.54h2.29l10.19,22.86h-3.33l-3.03-6.74h-9.7l-2.84,6.74h-3.34L244.2,258.54z M248.98,271.77
				l-3.67-8.23l-3.4,8.23H248.98z"/>
			<path class="st3" d="M259.17,258.67h3.25v19.77h10.23v2.96h-13.49V258.67z"/>
			<path class="st3" d="M304.35,276.13v3.58c-2.39,1.3-5.14,1.95-8.27,1.95c-2.54,0-4.69-0.51-6.46-1.53
				c-1.77-1.02-3.17-2.43-4.2-4.22c-1.03-1.79-1.55-3.73-1.55-5.81c0-3.31,1.18-6.09,3.54-8.35c2.36-2.26,5.27-3.39,8.73-3.39
				c2.38,0,5.04,0.62,7.96,1.87v3.5c-2.66-1.52-5.25-2.28-7.79-2.28c-2.6,0-4.76,0.82-6.48,2.46c-1.72,1.64-2.58,3.7-2.58,6.18
				c0,2.49,0.85,4.54,2.54,6.15c1.69,1.61,3.86,2.41,6.49,2.41C299.04,278.67,301.73,277.83,304.35,276.13z"/>
			<path class="st3" d="M319.51,258.35c3.51,0,6.44,1.11,8.77,3.34c2.34,2.22,3.5,5.01,3.5,8.36c0,3.35-1.18,6.13-3.54,8.32
				c-2.36,2.2-5.33,3.3-8.92,3.3c-3.43,0-6.28-1.1-8.56-3.3c-2.28-2.2-3.42-4.95-3.42-8.26c0-3.4,1.15-6.21,3.45-8.43
				C313.09,259.46,316,258.35,319.51,258.35z M319.64,261.44c-2.6,0-4.74,0.81-6.41,2.44c-1.68,1.63-2.51,3.7-2.51,6.23
				c0,2.45,0.84,4.49,2.52,6.12c1.68,1.63,3.78,2.44,6.31,2.44c2.54,0,4.65-0.83,6.35-2.49c1.7-1.66,2.54-3.73,2.54-6.2
				c0-2.41-0.85-4.43-2.54-6.08C324.19,262.26,322.11,261.44,319.64,261.44z"/>
			<path class="st3" d="M353.85,258.67h3.09v22.73h-2.8l-15.2-17.51v17.51h-3.06v-22.73h2.64l15.33,17.66V258.67z"/>
			<path class="st3" d="M367.44,271.88l-2.47-1.5c-1.55-0.95-2.66-1.88-3.31-2.8c-0.66-0.92-0.98-1.97-0.98-3.17
				c0-1.79,0.62-3.24,1.86-4.36c1.24-1.12,2.86-1.68,4.84-1.68c1.9,0,3.64,0.53,5.22,1.6v3.69c-1.64-1.58-3.4-2.36-5.29-2.36
				c-1.06,0-1.94,0.25-2.62,0.74c-0.68,0.49-1.03,1.12-1.03,1.89c0,0.68,0.25,1.32,0.76,1.91c0.5,0.59,1.31,1.22,2.43,1.87
				l2.49,1.47c2.77,1.66,4.16,3.76,4.16,6.32c0,1.82-0.61,3.3-1.83,4.44c-1.22,1.14-2.81,1.71-4.76,1.71
				c-2.25,0-4.29-0.69-6.13-2.07v-4.13c1.76,2.23,3.79,3.34,6.1,3.34c1.02,0,1.87-0.28,2.54-0.85c0.68-0.57,1.02-1.28,1.02-2.13
				C370.43,274.44,369.43,273.12,367.44,271.88z"/>
			<path class="st3" d="M388.23,258.35c3.51,0,6.44,1.11,8.77,3.34c2.33,2.22,3.5,5.01,3.5,8.36c0,3.35-1.18,6.13-3.54,8.32
				c-2.36,2.2-5.33,3.3-8.92,3.3c-3.42,0-6.28-1.1-8.56-3.3c-2.28-2.2-3.42-4.95-3.42-8.26c0-3.4,1.15-6.21,3.45-8.43
				C381.81,259.46,384.71,258.35,388.23,258.35z M388.36,261.44c-2.6,0-4.74,0.81-6.41,2.44c-1.68,1.63-2.51,3.7-2.51,6.23
				c0,2.45,0.84,4.49,2.52,6.12c1.68,1.63,3.78,2.44,6.31,2.44c2.54,0,4.65-0.83,6.35-2.49c1.7-1.66,2.54-3.73,2.54-6.2
				c0-2.41-0.85-4.43-2.54-6.08C392.91,262.26,390.83,261.44,388.36,261.44z"/>
			<path class="st3" d="M404.6,281.41v-22.73h5.7c2.3,0,4.13,0.57,5.48,1.71c1.35,1.14,2.03,2.68,2.03,4.62
				c0,1.32-0.33,2.47-0.99,3.43c-0.66,0.97-1.61,1.69-2.85,2.17c0.73,0.48,1.44,1.13,2.13,1.95c0.7,0.82,1.67,2.26,2.93,4.31
				c0.79,1.29,1.43,2.26,1.9,2.91l1.21,1.63h-3.87l-0.99-1.5c-0.03-0.05-0.1-0.15-0.2-0.28l-0.63-0.89l-1.01-1.66l-1.09-1.78
				c-0.67-0.93-1.29-1.68-1.85-2.23c-0.56-0.55-1.06-0.95-1.52-1.19c-0.45-0.24-1.21-0.37-2.27-0.37h-0.85v9.89H404.6z
				 M408.83,261.44h-0.98v7.18h1.24c1.65,0,2.78-0.14,3.39-0.42c0.61-0.28,1.09-0.71,1.43-1.28c0.34-0.57,0.51-1.22,0.51-1.94
				c0-0.72-0.19-1.37-0.57-1.95s-0.91-0.99-1.6-1.23C411.57,261.56,410.43,261.44,408.83,261.44z"/>
			<path class="st3" d="M419.7,258.64h18.99v2.9h-7.92v19.87h-3.27v-19.87h-7.79V258.64z"/>
			<path class="st3" d="M441.8,258.67h3.25v22.73h-3.25V258.67z"/>
			<path class="st3" d="M465.91,258.67h3.27v12.9c0,1.75-0.13,3.07-0.38,3.95c-0.26,0.89-0.57,1.63-0.95,2.22
				c-0.37,0.59-0.83,1.12-1.38,1.59c-1.8,1.55-4.15,2.33-7.06,2.33c-2.96,0-5.34-0.77-7.13-2.31c-0.54-0.48-1-1.01-1.38-1.6
				c-0.37-0.59-0.68-1.32-0.93-2.17c-0.25-0.86-0.37-2.2-0.37-4.04v-12.87h3.27v12.9c0,2.14,0.25,3.62,0.73,4.46
				c0.49,0.84,1.23,1.5,2.23,2.01c1,0.5,2.17,0.76,3.53,0.76c1.93,0,3.5-0.5,4.72-1.51c0.64-0.54,1.1-1.18,1.38-1.92
				c0.28-0.74,0.42-2,0.42-3.79V258.67z"/>
			<path class="st3" d="M491.77,258.67h3.04v22.73h-3.27v-17.69l-6.99,8.79h-0.6l-7.07-8.79v17.69h-3.25v-22.73h3.08l7.55,9.34
				L491.77,258.67z"/>
		</g>
	</g>
	<g>
		<g>
			<g>
				<path class="st1" d="M137.35,307.27h-2.73v9.85h-2.33v-9.85h-2.33v-1.91h2.33v-2.46c0-0.69,0.08-1.33,0.24-1.92
					c0.16-0.59,0.41-1.1,0.77-1.53c0.35-0.43,0.81-0.77,1.36-1.02c0.55-0.25,1.23-0.37,2.02-0.37c0.56,0,1.05,0.06,1.46,0.17
					l-0.27,2.01c-0.18-0.05-0.36-0.09-0.55-0.12c-0.18-0.03-0.39-0.05-0.62-0.05c-0.45,0-0.81,0.08-1.08,0.23
					c-0.27,0.16-0.48,0.37-0.63,0.63c-0.15,0.26-0.25,0.57-0.3,0.91c-0.05,0.34-0.07,0.69-0.07,1.05v2.46h2.73V307.27z"/>
				<path class="st1" d="M151.41,311.22c0,0.91-0.16,1.75-0.48,2.5c-0.32,0.76-0.77,1.42-1.34,1.97c-0.57,0.55-1.24,0.98-2.02,1.29
					c-0.78,0.31-1.61,0.46-2.5,0.46c-0.89,0-1.73-0.15-2.5-0.46c-0.78-0.31-1.45-0.74-2.01-1.29c-0.56-0.55-1-1.21-1.33-1.97
					c-0.32-0.76-0.48-1.59-0.48-2.5c0-0.91,0.16-1.74,0.48-2.49c0.32-0.75,0.76-1.4,1.33-1.95c0.56-0.54,1.23-0.97,2.01-1.28
					c0.78-0.31,1.61-0.46,2.5-0.46c0.89,0,1.73,0.15,2.5,0.46c0.78,0.31,1.45,0.73,2.02,1.28c0.57,0.55,1.02,1.2,1.34,1.95
					C151.25,309.48,151.41,310.31,151.41,311.22z M148.98,311.23c0-0.56-0.09-1.1-0.26-1.61c-0.17-0.51-0.43-0.96-0.76-1.35
					c-0.33-0.39-0.74-0.7-1.23-0.93c-0.49-0.23-1.05-0.35-1.68-0.35c-0.63,0-1.19,0.12-1.68,0.35c-0.49,0.23-0.9,0.54-1.23,0.93
					c-0.33,0.39-0.59,0.84-0.76,1.35c-0.17,0.51-0.26,1.05-0.26,1.61c0,0.56,0.09,1.1,0.26,1.61c0.17,0.51,0.43,0.96,0.76,1.36
					c0.33,0.4,0.74,0.71,1.23,0.94c0.49,0.23,1.05,0.35,1.68,0.35c0.63,0,1.19-0.12,1.68-0.35c0.49-0.23,0.9-0.54,1.23-0.94
					c0.33-0.4,0.58-0.85,0.76-1.36C148.9,312.33,148.98,311.79,148.98,311.23z"/>
				<path class="st1" d="M154.61,306.68c-0.02-0.5-0.04-0.93-0.07-1.32h2.21c0.03,0.3,0.06,0.64,0.07,1.03
					c0.02,0.39,0.02,0.71,0.02,0.95h0.07c0.33-0.69,0.81-1.25,1.45-1.67c0.64-0.42,1.35-0.63,2.15-0.63c0.36,0,0.67,0.03,0.92,0.1
					l-0.1,2.16c-0.33-0.08-0.69-0.12-1.07-0.12c-0.56,0-1.05,0.1-1.46,0.31c-0.41,0.21-0.76,0.48-1.03,0.83
					c-0.27,0.35-0.48,0.75-0.61,1.2c-0.13,0.46-0.2,0.93-0.2,1.43v6.17h-2.33v-9.22C154.64,307.58,154.63,307.18,154.61,306.68z"/>
			</g>
		</g>
		<g>
			<path class="st1" d="M172.7,317.09v-22.7h7.66c3.09,0,5.54,0.46,7.34,1.39c1.8,0.93,3.23,2.29,4.3,4.09
				c1.06,1.8,1.59,3.76,1.59,5.89c0,1.52-0.29,2.97-0.88,4.36c-0.59,1.39-1.42,2.61-2.51,3.66c-1.11,1.08-2.39,1.9-3.86,2.46
				c-0.86,0.34-1.64,0.56-2.36,0.68c-0.72,0.11-2.08,0.17-4.1,0.17H172.7z M180.02,297.28h-4.07v16.91h4.17
				c1.63,0,2.89-0.11,3.79-0.33c0.9-0.22,1.65-0.5,2.25-0.84c0.6-0.34,1.15-0.76,1.65-1.26c1.61-1.63,2.41-3.68,2.41-6.17
				c0-2.44-0.82-4.43-2.47-5.97c-0.61-0.57-1.3-1.05-2.09-1.42c-0.79-0.37-1.53-0.61-2.24-0.73
				C182.72,297.34,181.59,297.28,180.02,297.28z"/>
			<path class="st1" d="M203.08,294.26h2.29l10.19,22.86h-3.33l-3.03-6.74h-9.7l-2.84,6.74h-3.34L203.08,294.26z M207.86,307.49
				l-3.67-8.23l-3.4,8.23H207.86z"/>
			<path class="st1" d="M212.78,294.36h18.99v2.9h-7.92v19.87h-3.27v-19.87h-7.79V294.36z"/>
			<path class="st1" d="M238.77,294.26h2.29l10.19,22.86h-3.33l-3.03-6.74h-9.7l-2.84,6.74H229L238.77,294.26z M243.55,307.49
				l-3.67-8.23l-3.4,8.23H243.55z"/>
			<path class="st1" d="M268.62,307.6l-2.47-1.5c-1.55-0.95-2.66-1.88-3.31-2.8c-0.66-0.92-0.98-1.97-0.98-3.17
				c0-1.79,0.62-3.24,1.86-4.36c1.24-1.12,2.86-1.68,4.84-1.68c1.9,0,3.64,0.53,5.22,1.6v3.69c-1.64-1.58-3.4-2.36-5.29-2.36
				c-1.06,0-1.94,0.25-2.62,0.74c-0.68,0.49-1.02,1.12-1.02,1.89c0,0.68,0.25,1.32,0.76,1.91c0.5,0.59,1.31,1.22,2.43,1.87
				l2.49,1.47c2.77,1.66,4.16,3.76,4.16,6.33c0,1.82-0.61,3.3-1.83,4.44c-1.22,1.14-2.81,1.71-4.76,1.71
				c-2.25,0-4.29-0.69-6.13-2.07v-4.13c1.76,2.23,3.79,3.34,6.1,3.34c1.02,0,1.87-0.28,2.55-0.85c0.68-0.57,1.02-1.28,1.02-2.13
				C271.62,310.15,270.62,308.84,268.62,307.6z"/>
			<path class="st1" d="M297.85,311.85v3.58c-2.39,1.3-5.14,1.95-8.27,1.95c-2.54,0-4.69-0.51-6.46-1.53
				c-1.77-1.02-3.17-2.42-4.2-4.21c-1.03-1.79-1.55-3.73-1.55-5.81c0-3.31,1.18-6.09,3.54-8.35c2.36-2.26,5.27-3.38,8.73-3.38
				c2.39,0,5.04,0.62,7.96,1.87v3.5c-2.66-1.52-5.26-2.28-7.79-2.28c-2.6,0-4.76,0.82-6.48,2.46c-1.72,1.64-2.58,3.7-2.58,6.18
				c0,2.5,0.85,4.55,2.54,6.15c1.69,1.6,3.86,2.41,6.49,2.41C292.53,314.39,295.22,313.54,297.85,311.85z"/>
			<path class="st1" d="M301.88,294.39h3.25v22.73h-3.25V294.39z"/>
			<path class="st1" d="M310.18,294.39h12.89v2.9h-9.63v6.93h9.31v2.91h-9.31v7.06h9.94v2.9h-13.2V294.39z"/>
			<path class="st1" d="M344.91,294.39H348v22.73h-2.8L330,299.61v17.51h-3.06v-22.73h2.64l15.33,17.66V294.39z"/>
			<path class="st1" d="M372.45,311.85v3.58c-2.38,1.3-5.14,1.95-8.27,1.95c-2.54,0-4.69-0.51-6.46-1.53
				c-1.77-1.02-3.17-2.42-4.2-4.21c-1.03-1.79-1.54-3.73-1.54-5.81c0-3.31,1.18-6.09,3.54-8.35c2.36-2.26,5.27-3.38,8.73-3.38
				c2.39,0,5.04,0.62,7.96,1.87v3.5c-2.66-1.52-5.26-2.28-7.79-2.28c-2.6,0-4.77,0.82-6.48,2.46c-1.72,1.64-2.58,3.7-2.58,6.18
				c0,2.5,0.84,4.55,2.54,6.15c1.69,1.6,3.86,2.41,6.49,2.41C367.14,314.39,369.83,313.54,372.45,311.85z"/>
			<path class="st1" d="M376.46,294.39h12.89v2.9h-9.63v6.93h9.31v2.91h-9.31v7.06h9.94v2.9h-13.2V294.39z"/>
		</g>
	</g>
</g>
</svg>
