<?xml version="1.0" encoding="utf-8"?>
<!-- Generator: Adobe Illustrator 23.0.1, SVG Export Plug-In . SVG Version: 6.00 Build 0)  -->
<svg version="1.1" id="Layer_1" xmlns="http://www.w3.org/2000/svg" xmlns:xlink="http://www.w3.org/1999/xlink" x="0px" y="0px"
	 viewBox="0 0 951.14 951.09" style="enable-background:new 0 0 951.14 951.09;" xml:space="preserve">
<style type="text/css">
	.st0{fill:#073B53;}
</style>
<path class="st0" d="M941.55,896.26l-186.5-186.5c154.7-179.8,134.4-451-45.4-605.8c-170.4-146.6-424.9-137.1-583.9,21.8
	c-167.7,167.9-167.7,439.9,0.2,607.6c57.8,57.7,130.8,97.8,210.5,115.5c77.5,17.2,158.3,12.6,233.3-13.3
	c16.7-5.9,25.4-24.2,19.5-40.8c-5.8-16.5-23.8-25.3-40.4-19.7c-133.4,45.9-278.2,12.6-377.9-87.2c-142.5-142.5-142.5-374.4,0-517
	s374.4-142.5,517,0s142.5,374.4,0,517c-12.5,12.5-12.5,32.8,0,45.2l208.3,208.3c12.3,12.7,32.6,13,45.2,0.7s13-32.6,0.7-45.2
	C941.95,896.76,941.75,896.56,941.55,896.26L941.55,896.26z"/>
<path class="st0" d="M857.95,397.56c-17.8-236.6-223.9-414-460.5-396.3c-224.1,16.8-397.4,203.5-397.4,428.3
	c0.1,237.3,192.5,429.6,429.7,429.5c81.7,0,161.6-23.3,230.5-67.2c66.9-42.7,120.8-103,155.6-174.4c7.6-15.9,0.9-35-15.1-42.7
	c-15.8-7.5-34.7-1-42.5,14.6c-61.8,126.8-187.8,205.6-328.8,205.5c-201.5,0.2-365.5-163.8-365.5-365.4s164-365.5,365.6-365.6
	c201.6,0,365.6,164,365.6,365.6c0,17.7,14.3,32,32,32"/>
</svg>
