<?xml version="1.0" encoding="utf-8"?>
<!-- Generator: Adobe Illustrator 23.0.1, SVG Export Plug-In . SVG Version: 6.00 Build 0)  -->
<svg version="1.1" id="Layer_1" xmlns="http://www.w3.org/2000/svg" xmlns:xlink="http://www.w3.org/1999/xlink" x="0px" y="0px"
	 viewBox="0 0 951.1 951.1" style="enable-background:new 0 0 951.1 951.1;" xml:space="preserve">
<style type="text/css">
	.st0{fill:#DE2A35;}
</style>
<path class="st0" d="M941.5,896.3L755,709.8C909.8,530,889.4,258.8,709.6,104C539.2-42.6,284.7-33.1,125.7,125.8
	C-42,293.7-42,565.7,125.9,733.4c57.8,57.7,130.8,97.8,210.5,115.5c77.5,17.2,158.3,12.6,233.3-13.3c16.7-5.9,25.4-24.2,19.5-40.8
	c-5.8-16.5-23.8-25.3-40.4-19.7c-133.4,45.9-278.2,12.6-377.9-87.2c-142.5-142.5-142.5-374.4,0-517s374.4-142.5,517,0
	s142.5,374.4,0,517c-12.5,12.5-12.5,32.8,0,45.2l208.3,208.3c12.3,12.7,32.6,13,45.2,0.7s13-32.6,0.7-45.2
	C942,896.8,941.8,896.6,941.5,896.3L941.5,896.3z"/>
<path class="st0" d="M858,397.6C840.2,161,634.1-16.4,397.5,1.3C173.4,18.1,0.1,204.8,0.1,429.6c0.1,237.3,192.5,429.6,429.7,429.5
	c81.7,0,161.6-23.3,230.5-67.2c66.9-42.7,120.8-103,155.6-174.4c7.6-15.9,0.9-35-15.1-42.7c-15.8-7.5-34.7-1-42.5,14.6
	C696.5,716.2,570.5,795,429.5,794.9C228,795.1,64,631.1,64,429.5S228,64,429.6,63.9c201.6,0,365.6,164,365.6,365.6
	c0,17.7,14.3,32,32,32"/>
</svg>
